<?xml version="1.0" encoding="UTF-8"?>
<svg width="100px" height="100px" viewBox="0 0 100 100" version="1.1" xmlns="http://www.w3.org/2000/svg" xmlns:xlink="http://www.w3.org/1999/xlink">
    <path d="M60.2056989,2 C71.2872365,2 83.2320528,11.0029635 89.9315428,24.3977529 C94.06215,32.6589672 95.7537852,41.5655452 94.6893541,49.4803306 C93.5704443,57.8225646 89.5487947,64.118353 83.371742,67.2082763 C80.7777151,68.5004006 77.9336447,69.1611301 74.9149629,69.1611301 C71.396194,69.1611301 67.7894211,68.2419757 64.2888118,66.5740877 C47.9842982,68.9376275 30.7648208,74.8325082 30.5860188,74.8953683 C28.3007048,75.6804212 25.9860562,76.0575818 23.7328707,76.0575818 C16.645045,76.0575818 10.1425166,72.3292793 6.92827007,65.8979924 C2.6873085,57.4230537 5.6277644,47.1950166 13.9225041,41.5753235 C14.0803528,41.4691597 29.1891276,31.1866439 40.8671377,19.5407623 C42.3115232,12.5185904 46.0132847,6.82486207 51.7489199,3.95425073 C54.3443436,2.65793574 57.1912078,2 60.2056989,2 Z M88.7008817,48.6743244 C89.6046703,41.9510872 88.1211719,34.2863454 84.5283678,27.0951497 C78.8290519,15.6965178 69.0550044,8.03876049 60.2056989,8.03876049 C58.1369031,8.03876049 56.200812,8.48157499 54.4519043,9.35323507 C45.098321,14.0342174 43.3689698,29.6025693 50.5964846,44.0617897 C56.2944037,55.4604216 66.0684511,63.118179 74.9163598,63.118179 C76.9879493,63.118179 78.9226436,62.6725707 80.6701544,61.8009106 C85.0033108,59.6371262 87.8571595,54.9743035 88.7008817,48.6743244 Z M68.0310832,26.9708264 C70.3136034,26.9708264 72.9649028,29.0857196 74.4819266,32.1141796 C76.3453794,35.8466728 75.9598375,40.130938 73.6577608,41.2805794 C73.244281,41.4887162 72.7819101,41.59488 72.2832199,41.59488 C70.0020967,41.59488 67.3466066,39.477193 65.8309796,36.4445422 C63.9004761,32.5863289 64.2720491,28.4738813 66.6551454,27.2823331 C67.071419,27.0741963 67.5351869,26.9708264 68.0310832,26.9708264 Z M63.1279953,37.7981298 C64.9621133,41.4579846 68.1134998,44.0338519 71.2229795,44.5255576 L60.3006875,52.6261295 C57.6200534,49.8840321 55.1964472,46.5147306 53.2966753,42.7151867 C51.3787437,38.8765298 50.1480826,34.9233278 49.565579,31.1642937 L62.5804139,27.2976989 C61.1276471,30.0216367 61.2310171,33.9971889 63.1279953,37.7981298 Z M52.2029095,71.9521187 L57.7779021,83.1048977 C60.0646129,87.6755256 58.2039539,93.2547089 53.633326,95.5442135 L52.363552,96.1784021 C51.0644432,96.8293533 49.6591707,97.1562259 48.2413261,97.1562259 C47.2523272,97.1562259 46.2577407,96.9969803 45.2896951,96.6715046 C42.9345366,95.8906425 41.030574,94.2395171 39.9256331,92.0324291 L32.6101141,77.4013911 C35.3242736,76.5115714 43.0923853,74.0446616 52.2029095,71.9521187 Z"></path>
</svg>